<svg id="Layer_1" data-name="Layer 1" xmlns="http://www.w3.org/2000/svg" viewBox="0 0 1037.5 183.3"><defs><style>.cls-1{fill:#006663;}</style></defs><title>ZD logo hijau R1</title><path class="cls-1" d="M145.15,490.72A12.72,12.72,0,0,1,157.87,478a12.86,12.86,0,0,1,4.36.78l51-79.63-201.32,0L32,437.75l87.46,17.88L79.77,529.46l22.47,43.16,46.64-72.91A12.68,12.68,0,0,1,145.15,490.72Z" transform="translate(-11.91 -399.1)"/><path class="cls-1" d="M287.5,541.87l-87-17.33,39.69-73.44-22.87-43.49-48.93,76.58a12.71,12.71,0,0,1-10.68,19.61,12.19,12.19,0,0,1-1.82-.15L106.42,580.7H307.33Z" transform="translate(-11.91 -399.1)"/><path class="cls-1" d="M442.27,558.9l6.42,22.16H345.93V563.43l64.48-77.75H347.27V463.51h98.9v17.64L381.86,558.9Z" transform="translate(-11.91 -399.1)"/><path class="cls-1" d="M456.58,463.51c0-8.23,5.27-14.6,13.1-14.6s13.1,6,13.1,14.1c0,8.73-5.27,15.11-13.1,15.11S456.58,471.74,456.58,463.51Z" transform="translate(-11.91 -399.1)"/><path class="cls-1" d="M550.79,535.89c0-27.21,20-46.52,47.25-46.52s47.1,19.31,47.1,46.52S625.34,582.4,598,582.4,550.79,563.09,550.79,535.89Zm69.12,0c0-15.62-9.42-25-21.87-25s-22,9.4-22,25,9.58,25,22,25S619.91,551.51,619.91,535.89Z" transform="translate(-11.91 -399.1)"/><path class="cls-1" d="M749,456.46v124.6H725.54L724,570.65c-6.55,7.89-16.12,11.75-28.21,11.75-25.52,0-45.17-18.13-45.17-46.51s19.65-46.52,45.17-46.52c11.08,0,20.48,3.53,27,10.92V461.37Zm-25.69,79.43c0-15.62-10.08-25-23-25-13.09,0-23.17,9.4-23.17,25s10.08,25,23.17,25C713.26,560.91,723.34,551.51,723.34,535.89Z" transform="translate(-11.91 -399.1)"/><path class="cls-1" d="M849.53,543.28H781.18c2.52,11.25,12.09,18.13,25.86,18.13,9.57,0,16.46-2.85,22.67-8.73l13.94,15.11c-8.4,9.58-21,14.61-37.28,14.61-31.23,0-51.55-19.64-51.55-46.51,0-27,20.65-46.52,48.19-46.52,26.53,0,47,17.8,47,46.85C850,538.24,849.69,541.1,849.53,543.28ZM780.85,528h44.49c-1.84-11.42-10.4-18.81-22.16-18.81C791.26,509.19,782.69,516.41,780.85,528Z" transform="translate(-11.91 -399.1)"/><path class="cls-1" d="M857.42,461.37l26.19-4.91v124.6H857.42Z" transform="translate(-11.91 -399.1)"/><path class="cls-1" d="M961.53,576.7c-5.38,3.86-13.27,5.7-21.33,5.7-21.32,0-33.75-10.91-33.75-32.41V512.88H892.51V492.73h13.94v-22h26.2v22h22.5l-2.41,20.15H932.65v36.78c0,7.72,4.19,11.92,11.24,11.92a17.64,17.64,0,0,0,10.59-3.36Z" transform="translate(-11.91 -399.1)"/><path class="cls-1" d="M1049.41,529.51v51.55h-24.52V569.81c-4.87,8.23-14.27,12.59-27.54,12.59-21.15,0-33.75-11.75-33.75-27.37,0-15.95,11.25-27,38.79-27h20.82c0-11.25-6.71-17.8-20.82-17.8-9.57,0-19.48,3.19-26,8.39l-9.4-18.3c9.91-7.06,24.52-10.92,39-10.92C1033.46,489.37,1049.41,502.14,1049.41,529.51Zm-26.2,23v-9.23h-18c-12.26,0-16.13,4.53-16.13,10.58,0,6.55,5.55,10.91,14.78,10.91C1012.63,564.77,1020.19,560.74,1023.21,552.51Z" transform="translate(-11.91 -399.1)"/><path class="cls-1" d="M476.9,536a11.23,11.23,0,0,1,5.88-9.87V490.72h-26.2v90.34h26.2V545.84A11.23,11.23,0,0,1,476.9,536Z" transform="translate(-11.91 -399.1)"/><path class="cls-1" d="M518.22,502.64V490.72h-25V526a11.21,11.21,0,0,1,0,20v35.1h26.2V538.41c0-17.3,9.57-25.19,24-25.19,2,0,3.69.17,5.88.33V489.37C535.35,489.37,524.6,493.91,518.22,502.64Z" transform="translate(-11.91 -399.1)"/></svg>